<?xml version="1.0" encoding="UTF-8" standalone="no"?>
<!DOCTYPE svg PUBLIC "-//W3C//DTD SVG 1.1//EN" "http://www.w3.org/Graphics/SVG/1.1/DTD/svg11.dtd">
<svg width="100%" height="100%" viewBox="0 0 300 300" version="1.1" xmlns="http://www.w3.org/2000/svg" xmlns:xlink="http://www.w3.org/1999/xlink" xml:space="preserve" xmlns:serif="http://www.serif.com/" style="fill-rule:evenodd;clip-rule:evenodd;stroke-linejoin:round;stroke-miterlimit:2;">
    <g transform="matrix(0.565685,0.565685,-0.282843,0.282843,-0.16054,-70.5501)">
        <rect x="0" y="0" width="125" height="250" style="fill:rgb(255,195,6);fill-opacity:0.25;"/>
    </g>
    <g transform="matrix(0.565685,0.565685,-0.282843,0.282843,299.839,229.45)">
        <rect x="0" y="0" width="125" height="250" style="fill:rgb(255,195,6);fill-opacity:0.25;"/>
    </g>
    <g transform="matrix(0.5,0,0,0.5,150,150.161)">
        <g transform="matrix(1,0,0,1,-250,-250)">
            <g transform="matrix(7.07107,0,0,5.78468,-1078.85,-3412.25)">
                <path d="M187.928,589.876C207.441,589.876 223.283,609.241 223.283,633.094C223.283,656.946 207.441,676.311 187.928,676.311C168.415,676.311 152.573,656.946 152.573,633.094C152.573,609.241 168.415,589.876 187.928,589.876ZM204.09,614.325C204.09,612.962 203.185,611.856 202.07,611.856L198.03,611.856C196.914,611.856 196.009,612.962 196.009,614.325L196.009,626.673C196.009,628.036 196.914,629.143 198.03,629.143L202.07,629.143C203.185,629.143 204.09,628.036 204.09,626.673L204.09,614.325ZM206.276,643.438L200.112,639.088C198.168,644.982 193.443,649.146 187.928,649.146C182.413,649.146 177.688,644.982 175.744,639.088L169.58,643.438C172.784,651.907 179.798,657.79 187.928,657.79C196.058,657.79 203.072,651.907 206.276,643.438ZM179.847,614.325C179.847,612.962 178.942,611.856 177.826,611.856L173.786,611.856C172.671,611.856 171.766,612.962 171.766,614.325L171.766,626.673C171.766,628.036 172.671,629.143 173.786,629.143L177.826,629.143C178.942,629.143 179.847,628.036 179.847,626.673L179.847,614.325Z" style="fill:rgb(0,129,199);"/>
            </g>
        </g>
    </g>
</svg>
